<svg width="28" height="23" viewBox="0 0 28 23" fill="none" xmlns="http://www.w3.org/2000/svg">
<path d="M2.6875 3.87874H26.3125C27.2445 3.87874 28 3.01045 28 1.93937C28 0.868293 27.2445 0 26.3125 0H2.6875C1.75553 0 1 0.868293 1 1.93937C1 3.01045 1.75553 3.87874 2.6875 3.87874Z" fill="#476EE6"/>
<path d="M26.3125 8.87866H2.6875C1.75553 8.87866 1 9.74696 1 10.818C1 11.8891 1.75553 12.7574 2.6875 12.7574H26.3125C27.2445 12.7574 28 11.8891 28 10.818C28 9.74696 27.2445 8.87866 26.3125 8.87866Z" fill="#476EE6"/>
<line x1="2.93585" y1="20.31" x2="14.0642" y2="20.31" stroke="#476EE6" stroke-width="3.88" stroke-linecap="round"/>
</svg>
